<?xml version="1.0" encoding="UTF-8"?>
<svg id="outlines" xmlns="http://www.w3.org/2000/svg" xmlns:xlink="http://www.w3.org/1999/xlink" viewBox="0 0 355.56 417.3">
  <defs>
    <style>
      .cls-1, .cls-2 {
        fill: url(#linear-gradient-2);
      }

      .cls-3 {
        fill: #fff;
      }

      .cls-4 {
        clip-path: url(#clippath-1);
      }

      .cls-5 {
        fill: url(#linear-gradient);
      }

      .cls-5, .cls-2, .cls-6 {
        stroke: #cb1c68;
        stroke-miterlimit: 10;
        stroke-width: 6.09px;
      }

      .cls-7 {
        fill: #f15a29;
      }

      .cls-8 {
        stroke: #fff;
        stroke-linecap: round;
        stroke-linejoin: round;
        stroke-width: 4.57px;
      }

      .cls-8, .cls-6 {
        fill: none;
      }

      .cls-9 {
        fill: #cb1c68;
      }
    </style>
    <linearGradient id="linear-gradient" x1="269.37" y1="359.89" x2="50.77" y2="57.21" gradientUnits="userSpaceOnUse">
      <stop offset=".02" stop-color="#ec008c"/>
      <stop offset=".05" stop-color="#ef32a2"/>
      <stop offset=".09" stop-color="#f362b8"/>
      <stop offset=".13" stop-color="#f68ccb"/>
      <stop offset=".17" stop-color="#f9afdb"/>
      <stop offset=".22" stop-color="#fbcce8"/>
      <stop offset=".26" stop-color="#fce2f2"/>
      <stop offset=".31" stop-color="#fef2f9"/>
      <stop offset=".37" stop-color="#fefcfd"/>
      <stop offset=".45" stop-color="#fff"/>
      <stop offset=".51" stop-color="#fefbfa"/>
      <stop offset=".58" stop-color="#fdf0ec"/>
      <stop offset=".66" stop-color="#fcded5"/>
      <stop offset=".74" stop-color="#fac5b4"/>
      <stop offset=".82" stop-color="#f7a58b"/>
      <stop offset=".9" stop-color="#f47f59"/>
      <stop offset=".97" stop-color="#f15a29"/>
    </linearGradient>
    <linearGradient id="linear-gradient-2" x1="95.23" y1="137.12" x2="238.87" y2="315.95" gradientUnits="userSpaceOnUse">
      <stop offset="0" stop-color="#cb1c68"/>
      <stop offset=".03" stop-color="#d44482"/>
      <stop offset=".07" stop-color="#de6f9f"/>
      <stop offset=".11" stop-color="#e796b9"/>
      <stop offset=".16" stop-color="#eeb6cf"/>
      <stop offset=".21" stop-color="#f4d1e0"/>
      <stop offset=".26" stop-color="#f9e5ee"/>
      <stop offset=".32" stop-color="#fcf4f7"/>
      <stop offset=".39" stop-color="#fefcfd"/>
      <stop offset=".52" stop-color="#fff"/>
      <stop offset=".63" stop-color="#fefcfc"/>
      <stop offset=".7" stop-color="#fef6f3"/>
      <stop offset=".75" stop-color="#fdebe5"/>
      <stop offset=".81" stop-color="#fbdbd0"/>
      <stop offset=".85" stop-color="#fac6b5"/>
      <stop offset=".9" stop-color="#f8ac94"/>
      <stop offset=".94" stop-color="#f58e6d"/>
      <stop offset=".98" stop-color="#f26c40"/>
      <stop offset="1" stop-color="#f15a29"/>
    </linearGradient>
    <clipPath id="clippath-1">
      <ellipse class="cls-2" cx="172.15" cy="232.88" rx="95.9" ry="118.6"/>
    </clipPath>
  </defs>
  <g>
    <path class="cls-7" d="M33.23,388.8v20.7c0,3.51-2.53,7.4-6.23,7.79l-1.22-3.02c2.19-.34,3.9-2.58,3.9-4.77v-6.38c-1.46,2.14-3.75,3.31-6.33,3.31-5.02,0-8.62-4.14-8.62-9.06s3.6-9.01,8.62-9.01c2.58,0,4.87,1.12,6.33,3.31v-2.87h3.56ZM29.63,396.01c-.34-2.44-2.73-4.63-5.6-4.63-3.26,0-5.8,2.78-5.8,5.99s2.53,5.99,5.8,5.99c2.92,0,5.26-2.19,5.6-4.63v-2.73Z"/>
    <path class="cls-7" d="M53.15,391.24c0,1.56-1.27,2.87-2.87,2.87-1.07,0-2.05-.68-2.48-1.7-1.56.78-2.48,2.39-2.63,4.33v9.25h-3.56v-17.19h3.56v2.87c.97-1.85,2.83-3.31,4.97-3.31,1.66,0,3.02,1.27,3.02,2.87Z"/>
    <path class="cls-7" d="M79.45,402.25v3.21c-1.02.73-2.34,1.02-3.6,1.02-2.19,0-3.94-1.46-4.53-3.75-1.41,2.39-3.75,3.7-6.53,3.7-5.02,0-8.62-4.14-8.62-9.06s3.6-9.01,8.62-9.01c2.58,0,4.82,1.12,6.28,3.21v-2.78h3.56v11.98c0,1.41.83,2.44,2.29,2.44.97,0,1.8-.24,2.53-.97ZM71.07,396.01c-.34-2.44-2.73-4.63-5.6-4.63-3.26,0-5.8,2.78-5.8,5.99s2.53,5.99,5.8,5.99c2.92,0,5.26-2.19,5.6-4.63v-2.73Z"/>
    <path class="cls-7" d="M102.1,397.38c0,4.92-3.65,9.06-8.67,9.06-2.53,0-4.82-1.17-6.23-3.26v13.74h-3.56v-28.1h3.56v2.78c1.41-2.14,3.7-3.21,6.23-3.21,5.02,0,8.67,4.14,8.67,9.01ZM98.59,397.38c0-3.21-2.53-5.99-5.8-5.99-2.87,0-5.26,2.19-5.6,4.63v2.73c.34,2.43,2.68,4.63,5.6,4.63,3.26,0,5.8-2.78,5.8-5.99Z"/>
    <path class="cls-7" d="M128.68,402.25v3.17c-1.02.78-2.39,1.02-3.51,1.02-3.07,0-4.87-2.53-4.87-5.31v-5.65c0-2.39-1.27-4.09-3.51-4.09-2.58,0-4.29,2.19-4.48,4.68v9.94h-3.56v-34.58h3.56v19.77c1.02-1.8,2.92-2.83,5.16-2.83,3.8,0,6.33,2.92,6.33,6.82v5.6c0,1.36.93,2.44,2.48,2.44.83,0,1.66-.29,2.39-.97Z"/>
    <path class="cls-7" d="M131.94,379.31c0-1.46,1.17-2.73,2.68-2.73s2.68,1.27,2.68,2.73-1.17,2.68-2.68,2.68-2.68-1.22-2.68-2.68ZM137.64,406.43c-2.97,0-4.77-2.53-4.77-5.31v-12.32h3.51v11.98c0,1.36.88,2.44,2.34,2.44.97,0,1.8-.29,2.53-.97v3.17c-1.07.78-2.39,1.02-3.6,1.02Z"/>
    <path class="cls-7" d="M153.33,403.17c1.8,0,3.85-.39,5.31-1.51v3.65c-1.56.83-3.56,1.12-5.31,1.12-5.26,0-9.6-3.75-9.6-9.11,0-4.82,3.8-8.96,8.72-8.96,2.73,0,6.48,1.07,6.48,4.38,0,1.61-1.17,2.87-2.78,2.87-1.36,0-2.73-1.22-2.73-2.58,0-.49.1-.92.29-1.27-.44-.1-.93-.15-1.36-.15-3.21,0-5.31,2.58-5.31,5.7,0,3.41,2.97,5.84,6.28,5.84Z"/>
    <path class="cls-7" d="M200.22,402.25v3.21c-1.02.73-2.34,1.02-3.6,1.02-2.19,0-3.95-1.46-4.53-3.75-1.41,2.39-3.75,3.7-6.53,3.7-5.02,0-8.62-4.14-8.62-9.06s3.6-9.01,8.62-9.01c2.58,0,4.82,1.12,6.28,3.21v-20.16h3.56v29.37c0,1.41.83,2.44,2.29,2.44.97,0,1.8-.24,2.53-.97ZM191.85,396.01c-.34-2.44-2.73-4.63-5.6-4.63-3.26,0-5.8,2.78-5.8,5.99s2.53,5.99,5.8,5.99c2.92,0,5.26-2.19,5.6-4.63v-2.73Z"/>
    <path class="cls-7" d="M212.45,403.37c1.61,0,3.55-.39,5.07-1.56v3.51c-1.56.83-3.56,1.12-5.02,1.12-5.5,0-9.79-3.8-9.79-9.11,0-4.82,3.99-8.96,8.82-8.96,3.21,0,5.55,1.36,7.5,3.8l-10.28,10.23c1.02.63,2.29.97,3.7.97ZM205.92,397.33c0,1.17.29,2.24.88,3.12l7.79-7.84c-.83-.68-2.09-1.17-3.17-1.17-3.26,0-5.5,2.73-5.5,5.89Z"/>
    <path class="cls-7" d="M223.11,405.51v-3.51c.83.78,1.9,1.27,2.97,1.27,1.31,0,2.39-1.02,2.39-2.34,0-2.78-3.8-4.38-3.8-7.79,0-2.29,1.17-4.04,3.21-5.02l1.9,2.58c-.97.49-1.61,1.32-1.61,2.44,0,2.48,3.8,4.19,3.8,8.08,0,2.87-2.09,5.21-5.02,5.21-1.31,0-2.73-.2-3.85-.93Z"/>
    <path class="cls-7" d="M236.94,379.31c0-1.46,1.17-2.73,2.68-2.73s2.68,1.27,2.68,2.73-1.17,2.68-2.68,2.68-2.68-1.22-2.68-2.68ZM242.64,406.43c-2.97,0-4.77-2.53-4.77-5.31v-12.32h3.51v11.98c0,1.36.88,2.44,2.34,2.44.97,0,1.8-.29,2.53-.97v3.17c-1.07.78-2.39,1.02-3.6,1.02Z"/>
    <path class="cls-7" d="M267.23,388.8v20.7c0,3.51-2.53,7.4-6.23,7.79l-1.22-3.02c2.19-.34,3.9-2.58,3.9-4.77v-6.38c-1.46,2.14-3.75,3.31-6.33,3.31-5.02,0-8.62-4.14-8.62-9.06s3.6-9.01,8.62-9.01c2.58,0,4.87,1.12,6.33,3.31v-2.87h3.56ZM263.63,396.01c-.34-2.44-2.73-4.63-5.6-4.63-3.26,0-5.8,2.78-5.8,5.99s2.53,5.99,5.8,5.99c2.92,0,5.26-2.19,5.6-4.63v-2.73Z"/>
    <path class="cls-7" d="M295.53,402.25v3.17c-1.02.78-2.39,1.02-3.51,1.02-3.07,0-4.87-2.53-4.87-5.31v-5.65c0-2.39-1.27-4.09-3.51-4.09-2.58,0-4.29,2.19-4.48,4.68v9.94h-3.56v-17.19h3.56v2.39c1.02-1.8,2.92-2.83,5.16-2.83,3.8,0,6.33,2.92,6.33,6.82v5.6c0,1.36.92,2.44,2.48,2.44.83,0,1.66-.29,2.39-.97Z"/>
    <path class="cls-7" d="M307.75,403.37c1.61,0,3.55-.39,5.07-1.56v3.51c-1.56.83-3.56,1.12-5.02,1.12-5.5,0-9.79-3.8-9.79-9.11,0-4.82,3.99-8.96,8.82-8.96,3.21,0,5.55,1.36,7.5,3.8l-10.28,10.23c1.02.63,2.29.97,3.7.97ZM301.22,397.33c0,1.17.29,2.24.88,3.12l7.79-7.84c-.83-.68-2.09-1.17-3.17-1.17-3.26,0-5.5,2.73-5.5,5.89Z"/>
    <path class="cls-7" d="M331.52,391.24c0,1.56-1.27,2.87-2.87,2.87-1.07,0-2.05-.68-2.48-1.7-1.56.78-2.48,2.39-2.63,4.33v9.25h-3.56v-17.19h3.56v2.87c.97-1.85,2.83-3.31,4.97-3.31,1.66,0,3.02,1.27,3.02,2.87Z"/>
  </g>
  <ellipse class="cls-5" cx="172.15" cy="225.27" rx="111.03" ry="126.23"/>
  <g>
    <ellipse class="cls-1" cx="172.15" cy="232.88" rx="95.9" ry="118.6"/>
    <g class="cls-4">
      <g>
        <rect class="cls-7" x="164.01" y="279.86" width="16.27" height="47.01" rx="2.11" ry="2.11"/>
        <ellipse class="cls-7" cx="172.15" cy="233.34" rx="61.48" ry="76.04"/>
        <rect class="cls-7" x="167.61" y="325.76" width="9.08" height="26.22"/>
      </g>
      <line class="cls-8" x1="119.64" y1="232.67" x2="224.65" y2="232.67"/>
      <line class="cls-8" x1="172.15" y1="164.91" x2="172.15" y2="231.04"/>
      <rect class="cls-3" x="166.54" y="187.33" width="11.31" height="32.67" rx="1.47" ry="1.47"/>
    </g>
    <ellipse class="cls-6" cx="172.15" cy="232.88" rx="95.9" ry="118.6"/>
  </g>
  <g>
    <path class="cls-9" d="M2.53,115.24c-1.97-3.49-2.98-5.37-2.33-6.9.43-1.02,1.61-1.99,3.63-3.11,2.49-1.44,4.08-8.67,9.21-6.6.29.12.55.32.72.73,2.84,6.52,24.3,27.56,40.54,37.73.96.58,1.85,1.12,1.17,2.72-.83,1.97-3.03,4.14-5.07,3.28-1.84-.94-9.62-5.5-10.73-6.14-.58-.25-1.07-.11-1.71,1.43-.18.44-2.86,9.87-3.04,11.51-.36,3.11,6.64,12.58,8.96,16.47.33.65.82,1.12.48,1.92-1.07,2.55-6.58,4.02-8.92,3.03-.29-.12-.67-.45-1.18-1.27-11.32-18.41-20.14-34.39-31.73-54.8ZM32.84,132.36l-11.31-8.62c-.51-.21-.8-.34-.89-.12-.31.73,6.91,15.61,7.86,16.01.36.15.78-.02,1.26-.76,1.09-1.77,2.81-5.86,3.08-6.52Z"/>
    <path class="cls-9" d="M54.53,125.52c.6.39,1.19.5,1.45.1.09-.13.11-.31.1-.59-.05-1.07-.59-5.88-2.53-11.59-.93-3.35-4.68-15.08-5.56-17.36-.13-.37-.18-.59-.05-.79.39-.6,1.91-.17,1.91-.17,1.67,3.65,4.63,11.27,7.3,18.31,1.52,4.03,3.86,10.86,4.33,14.76.14.94-.07,1.84-.46,2.44-1.87,2.85-8.41,2.15-11.46.15-6.75-4.42-21.65-32.36-27.83-45.02-.13-.37-.36-.61-.62-.79-.79-.52-1.96-.34-2.42-.64-.4-.26-.31-.96.94-2.88,1.47-2.25,5.88-5.8,9.59-3.37,1.46.95,2.83,2.9,3.82,6.29,3.74,12.77,17.7,38.67,21.48,41.14Z"/>
    <path class="cls-9" d="M40.36,75c2.27-2.74,6.73-2.54,8.32-1.23,1.58,1.31,3.42,6.54,2.06,8.18-1.72,2.07-6.86,4.18-8.75,2.62-2.13-1.77-3.6-7.19-1.63-9.57ZM46.83,90.13c1.52-1.83,5.8-2.9,7.87-1.19.55.45.95,1.09,1.11,1.64,3.02,10,7.36,20.39,8.58,21.4.55.45,1.13.62,1.43.26.1-.12.14-.29.17-.58.07-1.07.07-5.91-1.22-11.8-.55-3.43-2.97-15.52-3.58-17.88-.09-.38-.11-.61.04-.79.45-.55,1.92.05,1.92.05,1.26,3.82,3.34,11.72,5.21,19.02,1.06,4.17,2.62,11.22,2.65,15.15.03.95-.24,1.65-.69,2.2-2.12,2.56-8.69.81-11.49-1.51-3.9-3.23-8.79-14.69-12.7-21.63-.95-1.71-.14-3.3.72-4.34Z"/>
    <path class="cls-9" d="M66.29,94.32c-.46.43-.98.69-1.41.23-.32-.35-.52-1.03-.64-2.43-.38-5.28-2.39-11.84-4.32-14.15-1.45-1.67-2.17-3.72-1.12-4.69,1.72-1.17,6.07-2.2,7.48-2.65,1.02-.3,2.43-.53,3.07.16.16.17.32.46.36.85.16,1.8,0,4.76.63,6.01.1.23.32.46.59.75,1.35,1.45,4.62,4.02,6.89,6.46,4.37,4.69,10.93,14.16,5.14,19.55-4.28,3.99-14.85.43-18.9-3.91-1.78-1.91-2.27-3.94-.59-5.62,0,0,9.65,5.82,11.21,4.37,1.79-1.67-1.51-6.38-4.37-9.45-1.73-1.85-3.25-3.14-3.6-2.81-.17.16-.25.66-.16,1.34.02,1.06.5,3.43.56,4.89,0,0-.36.66-.82,1.09Z"/>
    <path class="cls-9" d="M87.64,55.65c3.35-2.25,7.57-1.08,9.02,1.09.79,1.18,1.67,6.6,2.02,12.94l.13-.09c1.84-1.24,3.41-3.72,3.88-7.56.43-3.62,1.22-8.54,1.26-10.19.02-.4.06-.61.26-.75.59-.4,1.82.59,1.82.59.1,2.7.11,6.98.01,10.95-.14,5.62-2.6,9.75-5.62,11.78-.53.35-.99.66-1.53.84.03,8.56-1,17.26-4.28,19.46-4.21,2.82-7.66,1.23-10.3-2.71-6.53-9.72-7.94-33.27-2.95-36.62,1.51-1.01,3.86.36,6.28.27ZM92.97,74.95c-.81-.5-1.58-1.22-2.2-2.14-.93-1.38-1.66-3.18-1.97-5.63l-.2.13c-2.83,1.9-3.31,16.23,1.77,23.79.4.59.84.68,1.23.41,1.77-1.19,2.23-9.88,1.37-16.55Z"/>
    <path class="cls-9" d="M136.03,76.41c.61,1.46-1.27,3.71-3.97,4.85-3.43,1.44-8.05,1.06-10.53-4.84-3.19-7.59-.31-18.92,2.13-26.99-6.23,6.82-9.78,23.51-9.12,31.81.06,1.17-.34,1.86-1.14,2.19-1.68.71-7.18-.33-8.56-3.61-4.23-10.07-2.18-33.59,3.51-35.98,1.82-.77,6-.03,6.98,2.3.34.8.27,1.86-.49,3.12-4.3,10.39-5.96,23.62-4.33,27.48,1.02-2.06,4.2-29.83,12.31-37.1,2.72-.88,5.95-.96,6.81,1.09.28.66.35,1.65,0,2.84-2.23,7.97-3.81,18.51-.84,25.59,1.26,2.99,3.34,5.29,6.48,6.63.41.17.68.4.77.62Z"/>
    <path class="cls-9" d="M152.99,70.68c-3.72.11-7.89-4.76-8-8.56-.23-7.99,12.2-33.36,16.91-51.38.57-2.15,3.01-2.86,4.75-2.91,2.93-.08,8.69,2.21,8.79,5.61.02.87-.43,1.52-.89,2.08-5.93,8.48-17.01,30.96-19.06,36.96-.07.24-.07.32-.07.48.01.4.17.55.49.54s.71-.18,1.09-.51c7.09-9.7,15.4-26.4,22.24-36.49.84-1.13,1.78-1.55,2.73-1.58,3.01-.08,6.21,3.86,6.27,6.31.03.95-.35,1.59-1.12,2.25-6.82,10.64-9.22,21.16-10.61,25.24-.07.24-.07.32-.07.48.01.4.17.55.49.54.32,0,.71-.18,1.09-.51,7.09-9.7,22.22-37.05,29.06-47.14.67-1.52,2.32-2.04,3.82-2.09,3.4-.1,7.2,2.8,7.32,6.84.03.95-.35,1.59-1.2,2.33-19.2,17.96-30.25,44.4-36.75,55.19-.53.73-2.42,1.33-4.55,1.4-3.48.1-7.55-1.13-7.66-5.01.46-6.11,1.94-12.56,3.74-18.95-5.78,8.24-9.72,17.45-15.08,26.39-1.06,1.69-2.38,2.44-3.73,2.48Z"/>
    <path class="cls-9" d="M204.44,65.47c-4.2,2.99-8.31,4.55-10.39,4.06-3.39-.8-6.04-3.7-5.19-7.32,2.72-11.55,19.24-30.59,32.72-27.41,4.47,1.05,5.24,4.33,4.59,7.1-.6,2.54-2.39,4.64-3.7,4.33-.23-.05-.52-.2-.81-.35-1.22-.69-2.4-1.22-3.55-1.49-11.25-2.65-22.06,12.52-23.35,17.99-.24,1-.15,1.67.39,1.8,4.62,1.09,16.44-12.14,19.52-18.98.9-.03,1.77.09,2.62.29,3.31.78,5.7,3.05,5.32,4.67-.07.31-.41.72-.92,1.16-2.22,1.83-9.8,9.15-10.49,12.08-.33,1.39.82,2.06,1.28,2.17,1.62.38,5.39-1.82,6.36-2.49,0,0,1.14.68.87,1.83-.11.46-.39.97-1,1.47-4.31,3.78-8.53,5.14-11.23,4.51-2.31-.54-3.51-2.37-3.03-5.43Z"/>
    <path class="cls-9" d="M234.95,45.8c1.06-.99,3.56-.55,5.86.5,2.52,1.15,4.78,3.06,4.09,4.57-2.07,4.53-21.9,12.87-24.24,17.98-.36.79-.17,1.32.48,1.61,2.23,1.02,9.6-1.01,16.42-6.41,8.85-8.13,12.97-12,14.96-13.87,1.4-1.36,3.15-1,4.38-.44,2.16.99,4.1,4.92,2.98,7.37-.3.65-.81,1.2-1.29,1.5-8.07,5.1-18.51,12.68-32.24,24.25,6.7,3.24,10,5.35,20.57,12.11,4.06,2.55,4.49,2.92,4.43,3.07-.13.29-1.8.13-4.34.36-3.37-1.19-1.19,1.28-5.3-.59-.58-.26-1.29-.59-2.13-1.06-5.95-3.16-9.76-6.81-16.81-10.82-7.67,6.68-13.68,6.89-18.07,4.88-4.53-2.07-7.27-6.55-5.43-10.58,2.67-5.83,10.24-4.89,20.46-.39l6.5-5.64c-4.59,1.47-9.14,1.91-11.59.79-1.73-.79-2.39-2.4-1.17-5.06,3.82-8.35,18.18-20.93,21.47-24.12ZM216.43,82.68l-.07-.03c-5.25-2.4-9.27-2.94-10.59-.06-.76,1.66-.43,3.8,1.22,4.56,1.44.66,3.83.19,7.31-2.66l2.13-1.81Z"/>
    <path class="cls-9" d="M247.09,82.42c-.39.59-.5,1.19-.11,1.45.13.09.31.11.59.11,1.08-.05,5.88-.56,11.61-2.45,3.36-.9,15.12-4.59,17.4-5.44.37-.13.59-.18.79-.04.59.39.16,1.91.16,1.91-3.66,1.65-11.3,4.56-18.36,7.18-4.04,1.5-10.88,3.79-14.79,4.23-.94.13-1.84-.08-2.44-.48-2.83-1.88-2.1-8.43-.08-11.46,4.47-6.72,32.5-21.44,45.2-27.54.37-.13.61-.35.79-.62.53-.79.35-1.95.66-2.42.26-.4.97-.31,2.88.96,2.24,1.49,5.76,5.92,3.3,9.61-.96,1.45-2.92,2.81-6.32,3.78-12.79,3.66-38.78,17.46-41.28,21.21Z"/>
    <path class="cls-9" d="M265.06,98.47c-5.13.58-9.47-.05-11.05-1.49-2.58-2.34-3.49-6.16-.98-8.92,7.99-8.78,31.66-17.41,41.91-8.1,3.4,3.09,2.48,6.32.57,8.43-1.76,1.93-4.34,2.9-5.34,1.99-.17-.16-.36-.43-.54-.7-.73-1.2-1.51-2.23-2.38-3.02-8.55-7.77-25.36.25-29.14,4.41-.69.76-.94,1.39-.53,1.76,3.51,3.19,20.27-2.64,26.27-7.13.8.41,1.5.94,2.14,1.52,2.52,2.29,3.51,5.44,2.39,6.66-.21.23-.71.43-1.37.57-2.83.53-13.01,3.25-15.03,5.48-.96,1.05-.29,2.2.06,2.52,1.23,1.12,5.59,1.02,6.77.91,0,0,.67,1.14-.13,2.02-.32.35-.81.65-1.59.8-5.6,1.22-9.95.36-12-1.5-1.76-1.6-1.92-3.77-.02-6.22Z"/>
    <path class="cls-9" d="M282.22,134.53c-1.27.95-3.91-.34-5.66-2.68-2.23-2.98-2.98-7.55,2.15-11.39,6.59-4.93,18.29-4.89,26.71-4.47-8.13-4.39-25.18-3.79-33.08-1.14-1.12.35-1.88.12-2.41-.57-1.09-1.46-1.42-7.04,1.43-9.18,8.74-6.54,32.06-10.26,35.76-5.32,1.19,1.58,1.48,5.81-.54,7.33-.7.52-1.74.71-3.15.28-11.13-1.66-24.36-.05-27.72,2.46,2.25.49,29.96-3.15,38.98,2.95,1.52,2.42,2.37,5.54.6,6.87-.57.43-1.52.74-2.75.68-8.28-.23-18.88.79-25.03,5.39-2.6,1.94-4.33,4.52-4.87,7.89-.06.44-.22.76-.41.9Z"/>
    <path class="cls-9" d="M300.09,141.75c-6.42-1.14-11.72-3.6-12.85-5.96-1.81-3.78.04-6.51,3.82-8.32,10.06-4.82,33.71-2.71,37.67,5.57,1.26,2.64.57,4.12-.93,4.83-2.36,1.13-6.84.55-8.99-.08-.1-.39-.2-.78-.37-1.14-3.08-6.42-20.42-6.19-24.99-4.01-.86.41-1.22.93-.98,1.43,1.03,2.14,7.63,4.95,19.77,5.01,11.5.02,25.56,1.89,33.48-1.9,1.29-.62,2.43-1.34,3.37-2.31.4-.45.58-.8.87-.94.29-.14.67-.06,1.23.38,1.22.91,2.89,2.56,3.78,4.42,1.16,2.43.94,5.25-3.7,7.48-8.85,4.24-41.36-3.01-50.07,1.15-.86.41-1.04.94-.84,1.37.24.5.97.94,1.82,1.23.98.41,5.57,1.55,10.22,2.83,3.35.94,15.33,3.8,17.73,4.23.39.08.6.15.7.37.31.64-.84,1.72-.84,1.72-3.99-.46-12-1.8-19.45-3.24-7.52-1.4-15.6-2.89-16.86-5.53-1.09-2.28-.22-5.42,6.41-8.6Z"/>
  </g>
</svg>